<mxfile host="app.diagrams.net" agent="Mozilla/5.0 (X11; Linux x86_64; rv:133.0) Gecko/20100101 Firefox/133.0" version="24.8.4">
  <diagram name="Page-1" id="2YBvvXClWsGukQMizWep">
    <mxGraphModel dx="989" dy="1715" grid="1" gridSize="10" guides="1" tooltips="1" connect="1" arrows="1" fold="1" page="1" pageScale="1" pageWidth="850" pageHeight="1100" math="0" shadow="0">
      <root>
        <mxCell id="0" />
        <mxCell id="1" parent="0" />
        <mxCell id="KDrMybQwSiE4TZS-oY7b-35" value="" style="rounded=0;whiteSpace=wrap;html=1;fillColor=#ffe6cc;strokeColor=#d79b00;" vertex="1" parent="1">
          <mxGeometry x="20" y="-30" width="170" height="310" as="geometry" />
        </mxCell>
        <mxCell id="KDrMybQwSiE4TZS-oY7b-33" value="" style="rounded=0;whiteSpace=wrap;html=1;fillColor=#d5e8d4;strokeColor=#82b366;" vertex="1" parent="1">
          <mxGeometry x="750" y="-30" width="140" height="310" as="geometry" />
        </mxCell>
        <mxCell id="KDrMybQwSiE4TZS-oY7b-29" value="" style="rounded=0;whiteSpace=wrap;html=1;fillColor=#dae8fc;strokeColor=#6c8ebf;" vertex="1" parent="1">
          <mxGeometry x="190" y="-30" width="560" height="310" as="geometry" />
        </mxCell>
        <mxCell id="KDrMybQwSiE4TZS-oY7b-31" value="" style="rounded=0;whiteSpace=wrap;html=1;fillColor=#f8cecc;strokeColor=#b85450;" vertex="1" parent="1">
          <mxGeometry x="200" width="270" height="270" as="geometry" />
        </mxCell>
        <mxCell id="aM9ryv3xv72pqoxQDRHE-1" value="C2" style="shape=umlLifeline;perimeter=lifelinePerimeter;whiteSpace=wrap;html=1;container=0;dropTarget=0;collapsible=0;recursiveResize=0;outlineConnect=0;portConstraint=eastwest;newEdgeStyle={&quot;edgeStyle&quot;:&quot;elbowEdgeStyle&quot;,&quot;elbow&quot;:&quot;vertical&quot;,&quot;curved&quot;:0,&quot;rounded&quot;:0};" parent="1" vertex="1">
          <mxGeometry x="50" y="35" width="100" height="220" as="geometry" />
        </mxCell>
        <mxCell id="aM9ryv3xv72pqoxQDRHE-2" value="" style="html=1;points=[];perimeter=orthogonalPerimeter;outlineConnect=0;targetShapes=umlLifeline;portConstraint=eastwest;newEdgeStyle={&quot;edgeStyle&quot;:&quot;elbowEdgeStyle&quot;,&quot;elbow&quot;:&quot;vertical&quot;,&quot;curved&quot;:0,&quot;rounded&quot;:0};" parent="aM9ryv3xv72pqoxQDRHE-1" vertex="1">
          <mxGeometry x="45" y="70" width="10" height="130" as="geometry" />
        </mxCell>
        <mxCell id="aM9ryv3xv72pqoxQDRHE-7" value="&lt;b&gt;UDP&lt;/b&gt; SIG + OPCODES" style="html=1;verticalAlign=bottom;endArrow=block;edgeStyle=elbowEdgeStyle;elbow=vertical;curved=0;rounded=0;" parent="1" source="aM9ryv3xv72pqoxQDRHE-2" edge="1">
          <mxGeometry relative="1" as="geometry">
            <mxPoint x="195" y="130" as="sourcePoint" />
            <Array as="points">
              <mxPoint x="180" y="120" />
            </Array>
            <mxPoint x="265" y="120" as="targetPoint" />
          </mxGeometry>
        </mxCell>
        <mxCell id="KDrMybQwSiE4TZS-oY7b-1" value="&lt;b&gt;L&lt;/b&gt;inux &lt;b&gt;K&lt;/b&gt;ernel &lt;b&gt;M&lt;/b&gt;odule" style="shape=umlLifeline;perimeter=lifelinePerimeter;whiteSpace=wrap;html=1;container=0;dropTarget=0;collapsible=0;recursiveResize=0;outlineConnect=0;portConstraint=eastwest;newEdgeStyle={&quot;edgeStyle&quot;:&quot;elbowEdgeStyle&quot;,&quot;elbow&quot;:&quot;vertical&quot;,&quot;curved&quot;:0,&quot;rounded&quot;:0};" vertex="1" parent="1">
          <mxGeometry x="500" y="30" width="100" height="230" as="geometry" />
        </mxCell>
        <mxCell id="KDrMybQwSiE4TZS-oY7b-2" value="" style="html=1;points=[];perimeter=orthogonalPerimeter;outlineConnect=0;targetShapes=umlLifeline;portConstraint=eastwest;newEdgeStyle={&quot;edgeStyle&quot;:&quot;elbowEdgeStyle&quot;,&quot;elbow&quot;:&quot;vertical&quot;,&quot;curved&quot;:0,&quot;rounded&quot;:0};" vertex="1" parent="KDrMybQwSiE4TZS-oY7b-1">
          <mxGeometry x="45" y="80" width="10" height="130" as="geometry" />
        </mxCell>
        <mxCell id="KDrMybQwSiE4TZS-oY7b-4" value="eBPF e&lt;b&gt;X&lt;/b&gt;press &lt;b&gt;D&lt;/b&gt;ata &lt;b&gt;P&lt;/b&gt;ath - Ingress" style="shape=umlLifeline;perimeter=lifelinePerimeter;whiteSpace=wrap;html=1;container=0;dropTarget=0;collapsible=0;recursiveResize=0;outlineConnect=0;portConstraint=eastwest;newEdgeStyle={&quot;edgeStyle&quot;:&quot;elbowEdgeStyle&quot;,&quot;elbow&quot;:&quot;vertical&quot;,&quot;curved&quot;:0,&quot;rounded&quot;:0};size=50;" vertex="1" parent="1">
          <mxGeometry x="220" y="30" width="100" height="230" as="geometry" />
        </mxCell>
        <mxCell id="KDrMybQwSiE4TZS-oY7b-5" value="" style="html=1;points=[];perimeter=orthogonalPerimeter;outlineConnect=0;targetShapes=umlLifeline;portConstraint=eastwest;newEdgeStyle={&quot;edgeStyle&quot;:&quot;elbowEdgeStyle&quot;,&quot;elbow&quot;:&quot;vertical&quot;,&quot;curved&quot;:0,&quot;rounded&quot;:0};" vertex="1" parent="KDrMybQwSiE4TZS-oY7b-4">
          <mxGeometry x="45" y="80" width="10" height="130" as="geometry" />
        </mxCell>
        <mxCell id="KDrMybQwSiE4TZS-oY7b-6" value="eBPF &lt;b&gt;T&lt;/b&gt;raffic &lt;b&gt;C&lt;/b&gt;ontrol - Egress" style="shape=umlLifeline;perimeter=lifelinePerimeter;whiteSpace=wrap;html=1;container=0;dropTarget=0;collapsible=0;recursiveResize=0;outlineConnect=0;portConstraint=eastwest;newEdgeStyle={&quot;edgeStyle&quot;:&quot;elbowEdgeStyle&quot;,&quot;elbow&quot;:&quot;vertical&quot;,&quot;curved&quot;:0,&quot;rounded&quot;:0};" vertex="1" parent="1">
          <mxGeometry x="360" y="30" width="100" height="230" as="geometry" />
        </mxCell>
        <mxCell id="KDrMybQwSiE4TZS-oY7b-7" value="" style="html=1;points=[];perimeter=orthogonalPerimeter;outlineConnect=0;targetShapes=umlLifeline;portConstraint=eastwest;newEdgeStyle={&quot;edgeStyle&quot;:&quot;elbowEdgeStyle&quot;,&quot;elbow&quot;:&quot;vertical&quot;,&quot;curved&quot;:0,&quot;rounded&quot;:0};" vertex="1" parent="KDrMybQwSiE4TZS-oY7b-6">
          <mxGeometry x="45" y="80" width="10" height="130" as="geometry" />
        </mxCell>
        <mxCell id="KDrMybQwSiE4TZS-oY7b-8" value="&lt;b&gt;eBPF CPUMAP&lt;/b&gt; OPCODES" style="html=1;verticalAlign=bottom;endArrow=block;edgeStyle=elbowEdgeStyle;elbow=vertical;curved=0;rounded=0;" edge="1" parent="1" source="KDrMybQwSiE4TZS-oY7b-5" target="KDrMybQwSiE4TZS-oY7b-2">
          <mxGeometry relative="1" as="geometry">
            <mxPoint x="272.75" y="130" as="sourcePoint" />
            <Array as="points">
              <mxPoint x="362.75" y="130" />
            </Array>
            <mxPoint x="540" y="130" as="targetPoint" />
          </mxGeometry>
        </mxCell>
        <mxCell id="KDrMybQwSiE4TZS-oY7b-11" style="edgeStyle=elbowEdgeStyle;rounded=0;orthogonalLoop=1;jettySize=auto;html=1;elbow=horizontal;curved=0;" edge="1" parent="1" source="KDrMybQwSiE4TZS-oY7b-18" target="KDrMybQwSiE4TZS-oY7b-7">
          <mxGeometry relative="1" as="geometry">
            <mxPoint x="660.0000000000001" y="200.0030769230769" as="sourcePoint" />
            <mxPoint x="530" y="200.0030769230769" as="targetPoint" />
            <Array as="points">
              <mxPoint x="590" y="190" />
            </Array>
          </mxGeometry>
        </mxCell>
        <mxCell id="KDrMybQwSiE4TZS-oY7b-12" value="&lt;font style=&quot;font-size: 10px;&quot;&gt;&lt;b&gt;UDP trough Kernel Socket&lt;/b&gt;&lt;br&gt;Response&lt;/font&gt;" style="edgeLabel;html=1;align=center;verticalAlign=middle;resizable=0;points=[];" vertex="1" connectable="0" parent="KDrMybQwSiE4TZS-oY7b-11">
          <mxGeometry x="0.2331" relative="1" as="geometry">
            <mxPoint x="40" y="-20" as="offset" />
          </mxGeometry>
        </mxCell>
        <mxCell id="KDrMybQwSiE4TZS-oY7b-13" style="edgeStyle=elbowEdgeStyle;rounded=0;orthogonalLoop=1;jettySize=auto;html=1;elbow=vertical;curved=0;" edge="1" parent="1" target="aM9ryv3xv72pqoxQDRHE-2">
          <mxGeometry relative="1" as="geometry">
            <mxPoint x="405" y="210.00285714285712" as="sourcePoint" />
            <mxPoint x="110" y="210" as="targetPoint" />
          </mxGeometry>
        </mxCell>
        <mxCell id="KDrMybQwSiE4TZS-oY7b-14" value="&lt;b&gt;TCP&lt;/b&gt; Edited response " style="edgeLabel;html=1;align=center;verticalAlign=middle;resizable=0;points=[];" vertex="1" connectable="0" parent="KDrMybQwSiE4TZS-oY7b-13">
          <mxGeometry x="0.241" y="-1" relative="1" as="geometry">
            <mxPoint x="55" y="1" as="offset" />
          </mxGeometry>
        </mxCell>
        <mxCell id="KDrMybQwSiE4TZS-oY7b-15" value="&lt;b&gt;&lt;font style=&quot;font-size: 14px;&quot;&gt;Executing code in guest VM &lt;br&gt;&lt;/font&gt;&lt;/b&gt;" style="text;html=1;align=center;verticalAlign=middle;whiteSpace=wrap;rounded=0;" vertex="1" parent="1">
          <mxGeometry x="370" y="-80" width="200" height="30" as="geometry" />
        </mxCell>
        <mxCell id="KDrMybQwSiE4TZS-oY7b-17" value="Hypervisor" style="shape=umlLifeline;perimeter=lifelinePerimeter;whiteSpace=wrap;html=1;container=0;dropTarget=0;collapsible=0;recursiveResize=0;outlineConnect=0;portConstraint=eastwest;newEdgeStyle={&quot;edgeStyle&quot;:&quot;elbowEdgeStyle&quot;,&quot;elbow&quot;:&quot;vertical&quot;,&quot;curved&quot;:0,&quot;rounded&quot;:0};" vertex="1" parent="1">
          <mxGeometry x="630" y="30" width="100" height="230" as="geometry" />
        </mxCell>
        <mxCell id="KDrMybQwSiE4TZS-oY7b-18" value="" style="html=1;points=[];perimeter=orthogonalPerimeter;outlineConnect=0;targetShapes=umlLifeline;portConstraint=eastwest;newEdgeStyle={&quot;edgeStyle&quot;:&quot;elbowEdgeStyle&quot;,&quot;elbow&quot;:&quot;vertical&quot;,&quot;curved&quot;:0,&quot;rounded&quot;:0};" vertex="1" parent="KDrMybQwSiE4TZS-oY7b-17">
          <mxGeometry x="45" y="80" width="10" height="130" as="geometry" />
        </mxCell>
        <mxCell id="KDrMybQwSiE4TZS-oY7b-19" style="edgeStyle=elbowEdgeStyle;rounded=0;orthogonalLoop=1;jettySize=auto;html=1;elbow=vertical;curved=0;" edge="1" parent="1" target="KDrMybQwSiE4TZS-oY7b-22">
          <mxGeometry relative="1" as="geometry">
            <mxPoint x="555" y="140" as="sourcePoint" />
            <mxPoint x="810" y="140" as="targetPoint" />
          </mxGeometry>
        </mxCell>
        <mxCell id="KDrMybQwSiE4TZS-oY7b-20" value="&lt;b&gt;Allocated buffer&lt;br&gt;&lt;/b&gt;OPCODES" style="edgeLabel;html=1;align=center;verticalAlign=middle;resizable=0;points=[];" vertex="1" connectable="0" parent="KDrMybQwSiE4TZS-oY7b-19">
          <mxGeometry x="-0.3316" relative="1" as="geometry">
            <mxPoint x="38" y="-20" as="offset" />
          </mxGeometry>
        </mxCell>
        <mxCell id="KDrMybQwSiE4TZS-oY7b-21" value="Guest VM" style="shape=umlLifeline;perimeter=lifelinePerimeter;whiteSpace=wrap;html=1;container=0;dropTarget=0;collapsible=0;recursiveResize=0;outlineConnect=0;portConstraint=eastwest;newEdgeStyle={&quot;edgeStyle&quot;:&quot;elbowEdgeStyle&quot;,&quot;elbow&quot;:&quot;vertical&quot;,&quot;curved&quot;:0,&quot;rounded&quot;:0};" vertex="1" parent="1">
          <mxGeometry x="770" y="30" width="100" height="230" as="geometry" />
        </mxCell>
        <mxCell id="KDrMybQwSiE4TZS-oY7b-22" value="" style="html=1;points=[];perimeter=orthogonalPerimeter;outlineConnect=0;targetShapes=umlLifeline;portConstraint=eastwest;newEdgeStyle={&quot;edgeStyle&quot;:&quot;elbowEdgeStyle&quot;,&quot;elbow&quot;:&quot;vertical&quot;,&quot;curved&quot;:0,&quot;rounded&quot;:0};" vertex="1" parent="KDrMybQwSiE4TZS-oY7b-21">
          <mxGeometry x="45" y="80" width="10" height="130" as="geometry" />
        </mxCell>
        <mxCell id="KDrMybQwSiE4TZS-oY7b-25" style="edgeStyle=elbowEdgeStyle;rounded=0;orthogonalLoop=1;jettySize=auto;html=1;elbow=vertical;curved=0;" edge="1" parent="1">
          <mxGeometry relative="1" as="geometry">
            <mxPoint x="815" y="170.0028571428571" as="sourcePoint" />
            <mxPoint x="679.9285714285713" y="170.0028571428571" as="targetPoint" />
          </mxGeometry>
        </mxCell>
        <mxCell id="KDrMybQwSiE4TZS-oY7b-26" value="&lt;b&gt;VMCALL&lt;/b&gt; Handler" style="edgeLabel;html=1;align=center;verticalAlign=middle;resizable=0;points=[];" vertex="1" connectable="0" parent="KDrMybQwSiE4TZS-oY7b-25">
          <mxGeometry x="0.3199" relative="1" as="geometry">
            <mxPoint x="24" y="-10" as="offset" />
          </mxGeometry>
        </mxCell>
        <mxCell id="KDrMybQwSiE4TZS-oY7b-30" value="&lt;b&gt;Kernel space&lt;br&gt;&lt;/b&gt;" style="text;html=1;align=center;verticalAlign=middle;whiteSpace=wrap;rounded=0;" vertex="1" parent="1">
          <mxGeometry x="440" y="-30" width="80" height="30" as="geometry" />
        </mxCell>
        <mxCell id="KDrMybQwSiE4TZS-oY7b-32" value="&lt;b&gt;eBPF Sandbox&lt;br&gt;&lt;/b&gt;" style="text;html=1;align=center;verticalAlign=middle;whiteSpace=wrap;rounded=0;" vertex="1" parent="1">
          <mxGeometry x="285" width="100" height="30" as="geometry" />
        </mxCell>
        <mxCell id="KDrMybQwSiE4TZS-oY7b-34" value="&lt;b&gt;Virtual space&lt;br&gt;&lt;/b&gt;" style="text;html=1;align=center;verticalAlign=middle;whiteSpace=wrap;rounded=0;" vertex="1" parent="1">
          <mxGeometry x="780" y="-30" width="80" height="30" as="geometry" />
        </mxCell>
        <mxCell id="KDrMybQwSiE4TZS-oY7b-36" value="&lt;b&gt;Remote&lt;/b&gt;" style="text;html=1;align=center;verticalAlign=middle;whiteSpace=wrap;rounded=0;" vertex="1" parent="1">
          <mxGeometry x="60" y="-30" width="80" height="30" as="geometry" />
        </mxCell>
      </root>
    </mxGraphModel>
  </diagram>
</mxfile>
